<svg width="1000" height="1000" viewBox="0 0 1000 1000" fill="none" xmlns="http://www.w3.org/2000/svg">
<path d="M480.75 804.37C697.761 804.37 873.683 792.226 873.683 777.245C873.683 762.264 697.761 750.12 480.75 750.12C263.739 750.12 87.8171 762.264 87.8171 777.245C87.8171 792.226 263.739 804.37 480.75 804.37Z" fill="#E5E5E5"/>
<path d="M498.317 907.996C761.329 907.996 974.543 880.192 974.543 845.893C974.543 811.594 761.329 783.79 498.317 783.79C235.305 783.79 22.0911 811.594 22.0911 845.893C22.0911 880.192 235.305 907.996 498.317 907.996Z" fill="#E5E5E5"/>
<path d="M846.5 603C846.5 603 885 600.18 884.5 646.44C884.05 687.679 853.81 689.919 847.25 689.919C846.45 689.919 846 689.889 846 689.889H552.5V675.329H560.02H845.5C845.5 675.329 866.23 671.109 867 648.089C868 618.029 843.5 618.029 843.5 618.029H560.02H552.5V614V603H748.5H846.5Z" fill="#F51F3C"/>
<path d="M882.88 771.67C883.43 771.67 883.88 772.12 883.88 772.67C883.88 773.22 883.43 773.67 882.88 773.67V772.67V771.67Z" fill="black"/>
<path d="M882.88 782C883.43 782 883.88 782.45 883.88 783C883.88 783.55 883.43 784 882.88 784V783V782Z" fill="black"/>
<path d="M882.88 793.67C883.43 793.67 883.88 794.12 883.88 794.67C883.88 795.22 883.43 795.67 882.88 795.67V794.67V793.67Z" fill="black"/>
<path d="M882.88 795.67V810.12H565.16C565.16 810.12 542.08 806.24 541.23 785.09C540.12 757.46 567.379 757.46 567.379 757.46H882.879V771.67H563.33C562.78 771.67 562.33 772.12 562.33 772.67C562.33 773.22 562.78 773.67 563.33 773.67H882.88V782H582.33C581.78 782 581.33 782.45 581.33 783C581.33 783.55 581.78 784 582.33 784H882.88V793.67H630.33C629.78 793.67 629.33 794.12 629.33 794.67C629.33 795.22 629.78 795.67 630.33 795.67H882.88Z" fill="#E5E5E5"/>
<path d="M882.88 794.67V795.67H630.33C629.78 795.67 629.33 795.22 629.33 794.67C629.33 794.12 629.78 793.67 630.33 793.67H882.88V794.67V794.67Z" fill="black"/>
<path d="M882.88 783V784H582.33C581.78 784 581.33 783.55 581.33 783C581.33 782.45 581.78 782 582.33 782H882.88V783V783Z" fill="black"/>
<path d="M882.88 773.67H563.33C562.78 773.67 562.33 773.22 562.33 772.67C562.33 772.12 562.78 771.67 563.33 771.67H882.88V772.67V773.67V773.67Z" fill="black"/>
<path d="M843.5 618.03C843.5 618.03 868 618.03 867 648.09C866.23 671.111 845.5 675.33 845.5 675.33H560.02V661.33H832.33C832.88 661.33 833.33 660.88 833.33 660.33C833.33 659.78 832.88 659.33 832.33 659.33H560.02V647.44H802C802.55 647.44 803 646.99 803 646.44C803 645.889 802.55 645.44 802 645.44H560.02V632.67H811C811.55 632.67 812 632.22 812 631.67C812 631.12 811.55 630.67 811 630.67H560.02V618.03H843.5Z" fill="#E5E5E5"/>
<path d="M850.5 689.92C850.5 689.92 859.5 717.13 850.5 742.49L761 743.01V689.92H847.25H850.5Z" fill="#F51F3C" fill-opacity="0.17"/>
<path d="M832.33 659.33C832.88 659.33 833.33 659.78 833.33 660.33C833.33 660.88 832.88 661.33 832.33 661.33H560.02V660.33V659.33H832.33Z" fill="black"/>
<path d="M811 630.67C811.55 630.67 812 631.12 812 631.67C812 632.22 811.55 632.67 811 632.67H560.02V631.67V630.67H811Z" fill="black"/>
<path d="M802 645.44C802.55 645.44 803 645.889 803 646.44C803 646.99 802.55 647.44 802 647.44H560.02V646.44V645.44H802Z" fill="black"/>
<path d="M761 689.92V743.01L649.66 743.65H615.67V743.62V689.92H761Z" fill="white"/>
<path d="M748.5 602.96V603H552.5V614H518.5V470H748.5V602.96ZM694 548.33V518H653.33V548.33H694ZM607 566.11V507.33H539.5V566.11H607Z" fill="#F51F3C" fill-opacity="0.17"/>
<path d="M694 518H653.33V548.33H694V518Z" fill="white"/>
<path d="M615.67 743.62V743.65H564.04C564.04 743.65 560.33 743.429 555.11 744.2L525 744.37C525 744.37 516 718.07 525 689.92H615.67V743.62Z" fill="#F51F3C" fill-opacity="0.17"/>
<path d="M607 507.33H539.5V566.11H607V507.33Z" fill="white"/>
<path d="M560.02 660.33V661.33C559.47 661.33 559.02 660.88 559.02 660.33C559.02 659.78 559.47 659.33 560.02 659.33V660.33Z" fill="black"/>
<path d="M560.02 646.44V647.44C559.47 647.44 559.02 646.99 559.02 646.44C559.02 645.889 559.47 645.44 560.02 645.44V646.44Z" fill="black"/>
<path d="M560.02 631.67V632.67C559.47 632.67 559.02 632.22 559.02 631.67C559.02 631.12 559.47 630.67 560.02 630.67V631.67Z" fill="black"/>
<path d="M541.23 785.09C542.08 806.24 565.16 810.12 565.16 810.12H882.88H891.25V823.5H564.6C564.6 823.5 522.31 826.09 521.75 783.58C521.36 753.57 542.59 746.03 555.11 744.2L649.66 743.65H761H891.25V757.46H882.88H567.38C567.38 757.46 540.12 757.46 541.23 785.09Z" fill="#C21930"/>
<path d="M373.3 418V545.67H169V418H373.3ZM334.96 479V451.39H286.33V479H334.96ZM253 492.33V465.67H232.33V446H190.33V470H211.33V492.33H253Z" fill="#E5E5E5"/>
<path d="M334.96 451.39H286.33V479H334.96V451.39Z" fill="white"/>
<path d="M271.15 706.33L262.33 772.67H169L160.33 706.33H179.91C180.02 706.57 180.08 706.71 180.08 706.72C180.24 707.1 180.61 707.33 181 707.33C181.13 707.33 181.26 707.3 181.39 707.25C181.77 707.09 182 706.72 182 706.33H210.33C210.33 706.35 210.33 706.36 210.33 706.36C210.34 706.9 210.79 707.33 211.33 707.33C211.34 707.33 211.35 707.33 211.36 707.33C211.9 707.32 212.32 706.88 212.33 706.33H235.33C235.33 706.34 235.33 706.34 235.33 706.34C235.34 706.89 235.78 707.33 236.33 707.33H236.34C236.89 707.32 237.34 706.87 237.33 706.33H271.15Z" fill="#F51F3C" fill-opacity="0.17"/>
<path d="M253 465.67V492.33H211.33V470H232.33V465.67H253Z" fill="#F51F3C" fill-opacity="0.17"/>
<path d="M248.83 662.95C248.71 663.17 248.59 663.38 248.47 663.599C248.28 663.24 248.11 662.87 247.95 662.469C247.85 662.209 247.76 661.94 247.67 661.669L247.35 661.649C247.35 661.598 247.36 661.548 247.36 661.489C255.08 647.729 266.03 637.388 279.9 630.768C280.4 630.529 280.99 630.739 281.23 631.239C281.47 631.739 281.26 632.329 280.76 632.569C267.1 639.09 256.36 649.32 248.83 662.95Z" fill="black"/>
<path d="M247.36 661.49C247.52 657.469 245.02 652.76 244.66 648.679C244.13 642.7 244.33 634.65 246.57 629.07C250.51 619.269 260.85 610.44 271.65 610.33C275.07 610.3 279.39 611.12 282.67 610.35C288.02 609.09 288.65 604.281 290.06 600.071C293.4 590.05 309.69 589.911 315.02 598.081C318.75 603.801 320.69 611.671 318.93 618.421C317.35 624.482 311.31 633.482 306.09 637.001C299.34 641.551 290.55 639.631 284.07 644.981C281.11 647.42 279.35 652.581 279.99 656.401C280.76 660.921 284.29 664.13 284.67 668.991C285.45 679.22 273.28 680.161 265.59 678.241C261.02 677.1 258.59 674.011 255.34 670.991C252.52 668.371 250.01 666.571 248.47 663.6C248.59 663.38 248.71 663.17 248.83 662.951C256.36 649.321 267.1 639.091 280.76 632.571C281.26 632.331 281.47 631.741 281.23 631.241C280.99 630.741 280.4 630.531 279.9 630.77C266.03 637.39 255.08 647.73 247.36 661.49Z" fill="#F51F3C" fill-opacity="0.17"/>
<path d="M235.33 706.33C235.33 705.93 235.23 683.42 247.07 661.99C247.16 661.82 247.26 661.65 247.36 661.49C247.36 661.55 247.35 661.599 247.35 661.65L247.67 661.67C247.76 661.941 247.85 662.21 247.95 662.47C248.11 662.87 248.28 663.241 248.47 663.6C237.2 684.451 237.33 706.1 237.33 706.321V706.331H236.33H235.33V706.33Z" fill="black"/>
<path d="M236.33 706.33H237.33C237.34 706.87 236.89 707.32 236.34 707.33H236.33C235.78 707.33 235.34 706.89 235.33 706.34C235.33 706.34 235.33 706.34 235.33 706.33H236.33Z" fill="black"/>
<path d="M231.01 634.26C237.54 638.99 238.32 648.49 234.09 655.33C229.42 662.88 217.78 672.19 208.26 669.41C208.25 669.309 208.23 669.21 208.21 669.11C203.39 641.71 192.76 605.599 169.58 589.179C169.13 588.869 168.5 588.969 168.18 589.419C167.86 589.869 167.97 590.499 168.42 590.819C190.98 606.789 201.42 642.209 206.21 669.209C194.24 668.449 181.46 665.309 170.33 661.249C163.23 658.659 154.26 652.919 154.99 644.259C155.4 639.4 159.02 636.349 162.67 633.669C165.48 631.599 168.47 629.269 167.34 625.249C166.19 621.159 161.18 620.839 157.65 619.339C152.64 617.209 147.48 614.539 144.07 610.259C135.32 599.249 136.48 585.53 148 577.249C158.17 569.949 170.5 568.979 182 573.309C192.58 577.309 206.03 586.65 206 598.74C205.98 607.92 202 615.07 209.74 622.33C215.95 628.15 224.25 629.36 231.01 634.26Z" fill="#F51F3C"/>
<path d="M232.33 465.67V470H211.33H190.33V446H232.33V465.67Z" fill="white"/>
<path d="M211.33 706.33H212.33C212.32 706.88 211.9 707.32 211.36 707.33C211.35 707.33 211.34 707.33 211.33 707.33C210.79 707.33 210.34 706.9 210.33 706.36C210.33 706.36 210.33 706.349 210.33 706.33H211.33Z" fill="black"/>
<path d="M210.33 706.33C210.31 705.51 209.78 689.49 206.25 669.45C206.24 669.37 206.22 669.29 206.21 669.21C206.55 669.24 206.89 669.26 207.23 669.28C207.49 669.309 207.74 669.32 208 669.33C208.09 669.36 208.17 669.38 208.26 669.41C211.86 689.889 212.33 706.139 212.33 706.3C212.33 706.31 212.33 706.321 212.33 706.33H211.33H210.33Z" fill="black"/>
<path d="M181 706.33H182C182 706.72 181.77 707.09 181.39 707.25C181.26 707.3 181.13 707.33 181 707.33C180.61 707.33 180.24 707.1 180.08 706.72C180.08 706.71 180.02 706.571 179.91 706.33H181Z" fill="black"/>
<path d="M168.42 590.82C167.97 590.5 167.86 589.87 168.18 589.42C168.5 588.97 169.13 588.87 169.58 589.18C192.76 605.6 203.39 641.71 208.21 669.111C208.23 669.211 208.25 669.31 208.26 669.411C208.17 669.381 208.09 669.361 208 669.331C207.74 669.321 207.49 669.31 207.23 669.281C206.89 669.26 206.55 669.241 206.21 669.211C201.42 642.21 190.98 606.79 168.42 590.82Z" fill="black"/>
<path d="M163.34 685.01C163.55 684.76 163.74 684.481 163.91 684.191C163.92 684.201 163.94 684.211 163.95 684.22L164.15 684.37C164.32 684.51 164.5 684.64 164.67 684.79C177.08 694.6 181.73 705.49 181.92 705.94C181.98 706.07 182 706.2 182 706.33H181H179.91C178.96 704.33 174.13 694.82 163.4 686.33C163.35 686.29 163.31 686.25 163.27 686.23C163.4 686.15 163.53 686.07 163.67 686L164.02 685.55C163.8 685.36 163.57 685.19 163.34 685.01Z" fill="black"/>
<path d="M162.72 685.8L162.92 685.95C163.03 686.04 163.14 686.12 163.27 686.23C159.63 688.28 157.45 689.91 153 690.91C147.41 692.17 141.72 692.269 135.99 692.33C126.64 692.43 118.88 689.67 111 685.07C103.75 680.84 96.4801 673.95 95.0801 665.03C93.4801 654.88 103.23 643.07 114.28 645.639C117.37 646.36 117.98 649.679 119.42 651.999C121.06 654.649 122.59 655.349 125.75 655.669C133.99 656.489 141.13 650.139 149.67 653.319C157.19 656.109 162.85 663.558 164.42 671.268C165.14 674.798 165.94 680.729 163.91 684.189C154.8 677.189 144 672.649 131.83 670.678C131.28 670.588 130.77 670.968 130.68 671.508C130.59 672.058 130.97 672.569 131.51 672.658C143.37 674.57 153.88 678.99 162.72 685.8Z" fill="#C21930"/>
<path d="M162.92 685.95L162.72 685.8C153.88 678.99 143.37 674.571 131.51 672.66C130.97 672.57 130.59 672.059 130.68 671.51C130.77 670.97 131.28 670.59 131.83 670.68C144 672.651 154.8 677.191 163.91 684.191C163.74 684.481 163.55 684.76 163.34 685.01C163.57 685.191 163.8 685.361 164.02 685.55L163.67 686C163.53 686.07 163.4 686.15 163.27 686.23C163.14 686.12 163.03 686.04 162.92 685.95Z" fill="black"/>
<path d="M775.73 285L771.73 303L703.73 285H775.73Z" fill="#E22953"/>
<path d="M740 190L703.5 209L727 182.23L740 190Z" fill="#E22953"/>
<path d="M706.5 384.66L696.5 395.5L669 347.75L706.5 384.66Z" fill="#E22953"/>
<path d="M681 119.5L641.5 167L660.5 111.5L681 119.5Z" fill="#E22953"/>
<path d="M575.29 341.23V341.35C575.29 341.9 575.74 342.34 576.29 342.34C576.8 342.34 577.23 341.95 577.28 341.45C582.55 342.06 587.429 342.75 591.92 343.5C591.91 343.56 591.9 343.61 591.9 343.67C591.9 344.22 592.349 344.67 592.9 344.67C593.389 344.67 593.799 344.31 593.879 343.84V343.83C609.819 346.59 620.589 349.9 626.219 351.9C629.329 353.01 630.879 353.72 630.879 353.72L624.619 368.25C623.558 367.94 622.499 367.63 621.439 367.34C584.709 357.09 550.548 356.78 539.479 357C537.069 357.05 535.749 357.12 535.749 357.12L534.619 339.12C536.999 339.12 539.329 339.14 541.609 339.18C554.17 339.39 565.39 340.16 575.29 341.23Z" fill="#C21930"/>
<path d="M606.43 274.53C607.991 270.29 609.46 267.17 610.821 265.25C612.901 262.3 616.691 260.54 620.97 260.54C624.7 260.54 627.79 261.91 628.31 263.82C628.821 265.67 626.821 268.1 622.821 270.47C618.42 273.08 612.91 274.45 606.43 274.53Z" fill="#FFC962"/>
<path d="M610.82 265.25C609.46 267.17 607.99 270.29 606.429 274.53C612.909 274.45 618.419 273.08 622.82 270.47C626.82 268.1 628.82 265.67 628.309 263.82C627.789 261.91 624.7 260.54 620.969 260.54C616.69 260.54 612.9 262.3 610.82 265.25ZM605.34 274.59C606.85 270.43 608.43 266.9 610 264.67C617.34 254.25 640.17 261.33 623.33 271.33C618.35 274.28 612.309 275.51 606.01 275.54C606.01 275.4 605.99 275.26 605.93 275.14C605.91 275.09 605.88 275.03 605.84 274.97C605.81 274.92 605.76 274.86 605.71 274.82C605.67 274.78 605.62 274.74 605.57 274.71C605.53 274.68 605.49 274.65 605.45 274.63C605.41 274.62 605.38 274.6 605.34 274.59Z" fill="black"/>
<path d="M605.92 275.94C605.85 276.14 605.78 276.34 605.72 276.54C605.481 276.54 605.25 276.53 605.01 276.53C605.42 276.53 605.77 276.29 605.92 275.94Z" fill="black"/>
<path d="M605.84 274.97C605.88 275.03 605.91 275.09 605.93 275.14C605.91 275.08 605.88 275.02 605.84 274.97Z" fill="black"/>
<path d="M605.84 274.97C605.88 275.02 605.91 275.08 605.93 275.14C605.991 275.26 606.01 275.4 606.01 275.54C605.68 275.54 605.34 275.54 605.01 275.53C605.12 275.21 605.231 274.9 605.34 274.59C605.38 274.6 605.41 274.62 605.45 274.63C605.49 274.65 605.54 274.68 605.57 274.71C605.62 274.74 605.67 274.78 605.71 274.82C605.76 274.86 605.81 274.92 605.84 274.97Z" fill="black"/>
<path d="M604.32 274.51C606.04 269.7 607.63 266.29 609.179 264.09C611.629 260.61 616.039 258.54 620.969 258.54C625.74 258.54 629.459 260.44 630.24 263.29C630.79 265.29 630.12 268.46 623.84 272.19C618.981 275.07 612.901 276.54 605.78 276.54C605.759 276.54 605.74 276.54 605.719 276.54C605.78 276.34 605.849 276.14 605.919 275.94C605.98 275.82 606.009 275.68 606.009 275.54C612.309 275.51 618.349 274.28 623.329 271.33C640.169 261.33 617.339 254.25 609.999 264.67C608.429 266.9 606.849 270.43 605.339 274.59C605.269 274.56 605.19 274.54 605.099 274.54C605.089 274.53 605.079 274.53 605.07 274.53C605.049 274.53 605.04 274.53 605.019 274.53C605.009 274.53 605.009 274.53 604.999 274.53C604.77 274.53 604.55 274.52 604.32 274.51Z" fill="black"/>
<path d="M605.78 276.54C612.9 276.54 618.98 275.07 623.84 272.19C630.12 268.46 630.79 265.29 630.24 263.29C629.46 260.44 625.74 258.54 620.969 258.54C616.039 258.54 611.629 260.61 609.179 264.09C607.629 266.29 606.039 269.7 604.32 274.51C596.929 274.29 588.5 272.42 580.98 269.29C580.7 261.39 580.24 256.61 579.61 254.68C578.57 251.56 575.429 249.53 571.61 249.53C568.91 249.53 566.469 250.61 565.07 252.4C564.16 253.57 563.24 255.62 564.03 258.72C564.98 262.43 570.7 266.98 579.03 270.63C579.519 285.37 579.32 305.74 579.259 310.68L576.409 310.34C576.119 310.31 575.839 310.39 575.629 310.58C575.409 310.77 575.289 311.04 575.289 311.33V331.18C560.268 327.02 547.029 319.44 536.709 309.52C521.689 295.07 512.869 275.68 513.769 254.72C515.589 212.66 555.919 180.25 603.86 182.32C651.79 184.39 689.179 220.17 687.36 262.22C686.099 291.35 666.37 315.85 638.429 327.47C626.03 332.64 612.009 335.26 597.28 334.62C596.78 334.6 596.28 334.57 595.78 334.54L599.95 314.2C600.01 313.93 599.94 313.64 599.78 313.41C599.62 313.19 599.37 313.04 599.09 313.01L596.52 312.71C597.43 308.15 601.21 289.67 605.72 276.54C605.74 276.54 605.76 276.54 605.78 276.54Z" fill="#FFC962"/>
<path d="M605.71 274.82C605.67 274.78 605.62 274.74 605.57 274.71C605.62 274.74 605.67 274.78 605.71 274.82Z" fill="black"/>
<path d="M605.57 274.71C605.54 274.68 605.49 274.65 605.45 274.63C605.49 274.65 605.53 274.68 605.57 274.71Z" fill="black"/>
<path d="M605.45 274.63C605.41 274.62 605.38 274.6 605.34 274.59C605.38 274.6 605.41 274.62 605.45 274.63Z" fill="black"/>
<path d="M605.1 274.54C605.09 274.53 605.08 274.53 605.071 274.53C605.08 274.53 605.09 274.53 605.1 274.54Z" fill="black"/>
<path d="M605.01 275.53C605.34 275.54 605.68 275.54 606.01 275.54C606.01 275.68 605.981 275.82 605.92 275.94C605.77 276.29 605.42 276.53 605.01 276.53C605 276.53 605 276.53 605 276.53C604.89 276.53 604.79 276.51 604.69 276.47C604.79 276.15 604.9 275.84 605.01 275.53Z" fill="black"/>
<path d="M605 274.53C605.01 274.53 605.01 274.53 605.02 274.53C605.041 274.53 605.05 274.53 605.071 274.53C605.081 274.53 605.091 274.53 605.1 274.54C605.191 274.54 605.27 274.56 605.34 274.59C605.231 274.9 605.12 275.21 605.01 275.53C604.68 275.53 604.35 275.52 604.01 275.5C604.01 275.4 604.031 275.3 604.071 275.2C604.091 275.15 604.111 275.1 604.131 275.05C604.31 274.73 604.65 274.53 605 274.53Z" fill="black"/>
<path d="M605 274.53C604.65 274.53 604.31 274.73 604.13 275.05C604.191 274.87 604.25 274.68 604.32 274.51C604.55 274.52 604.77 274.53 605 274.53Z" fill="black"/>
<path d="M605 276.53C604.89 276.53 604.78 276.53 604.67 276.52C604.68 276.5 604.68 276.48 604.691 276.47C604.79 276.51 604.89 276.53 605 276.53Z" fill="black"/>
<path d="M605.01 275.53C604.901 275.84 604.79 276.15 604.691 276.47C604.491 276.41 604.31 276.28 604.191 276.1C604.06 275.92 604.001 275.71 604.01 275.5C604.35 275.52 604.68 275.53 605.01 275.53Z" fill="black"/>
<path d="M604.07 275.2C604.03 275.3 604.009 275.4 604.009 275.5C603.999 275.5 603.989 275.5 603.969 275.5C604 275.4 604.04 275.3 604.07 275.2Z" fill="black"/>
<path d="M604.19 276.1C604.309 276.28 604.49 276.41 604.69 276.47C604.679 276.48 604.679 276.5 604.669 276.52C604.329 276.52 603.98 276.51 603.629 276.49C603.739 276.15 603.849 275.82 603.969 275.5C603.99 275.5 603.999 275.5 604.009 275.5C604 275.71 604.06 275.92 604.19 276.1Z" fill="black"/>
<path d="M603.63 276.49C599.11 289.84 595.37 308.22 594.53 312.47L581.259 310.91C581.309 306.44 581.519 286.4 581.059 271.49C588.45 274.45 596.35 276.2 603.63 276.49Z" fill="#FFC962"/>
<path d="M595.78 334.54C596.28 334.57 596.78 334.6 597.28 334.62C612.009 335.26 626.03 332.64 638.429 327.47V327.48L626.219 351.9C620.589 349.9 609.82 346.59 593.879 343.83L595.78 334.54Z" fill="#FFC962"/>
<path d="M599.95 314.2L595.78 334.54C595.44 334.52 595.11 334.5 594.78 334.48L598.97 314L596.34 313.69C596.361 313.55 596.43 313.22 596.52 312.71L599.09 313.01C599.37 313.04 599.62 313.19 599.78 313.41C599.94 313.64 600.01 313.93 599.95 314.2Z" fill="black"/>
<path d="M597.77 314.87L593.77 334.4C588.1 333.97 582.59 333.05 577.291 331.7V312.46L580.041 312.78L595.341 314.58L597.77 314.87Z" fill="#FFC962"/>
<path d="M597.25 425.25C600.5 425.75 599.75 433.5 589.75 442.25C579.75 451 562.02 454.02 555.13 456.76C550.941 453.35 545.07 449.16 541.62 446.74C541.62 446.74 552.25 418 555.25 420.75C558.25 423.5 557.75 435.25 557.75 435.25C557.75 435.25 594 424.75 597.25 425.25Z" fill="#FDA181"/>
<path d="M605.72 276.54C601.21 289.67 597.43 308.15 596.52 312.71L595.531 312.59C596.401 308.19 600.14 289.83 604.671 276.52C604.781 276.53 604.891 276.53 605.001 276.53C605.001 276.53 605.001 276.53 605.011 276.53C605.25 276.53 605.48 276.54 605.72 276.54Z" fill="black"/>
<path d="M593.77 334.4L597.77 314.87L595.34 314.58V314.57C595.81 314.57 596.231 314.24 596.32 313.76C596.32 313.75 596.33 313.73 596.34 313.69L598.97 314L594.781 334.48C594.44 334.46 594.1 334.43 593.77 334.4Z" fill="black"/>
<path d="M595.78 334.54L593.88 343.83C593.56 343.77 593.231 343.72 592.901 343.66L594.781 334.48C595.11 334.5 595.44 334.52 595.78 334.54Z" fill="black"/>
<path d="M594.53 312.47C595.37 308.22 599.11 289.84 603.63 276.49C603.981 276.51 604.33 276.52 604.67 276.52C600.14 289.83 596.4 308.19 595.53 312.59L594.53 312.47Z" fill="black"/>
<path d="M596.52 312.71C596.43 313.22 596.361 313.55 596.34 313.69L595.34 313.57C595.34 313.57 595.41 313.23 595.53 312.59L596.52 312.71Z" fill="black"/>
<path d="M594.36 313.38C594.36 313.35 594.42 313.04 594.53 312.47L595.53 312.59C595.41 313.23 595.34 313.57 595.34 313.57L594.35 313.45C594.35 313.43 594.36 313.4 594.36 313.38Z" fill="black"/>
<path d="M595.15 314.55C594.629 314.45 594.28 313.97 594.349 313.45L595.339 313.57L596.339 313.69C596.329 313.73 596.319 313.75 596.319 313.76C596.229 314.24 595.808 314.57 595.339 314.57C595.28 314.57 595.22 314.56 595.15 314.55Z" fill="black"/>
<path d="M593.77 334.4C594.1 334.43 594.441 334.46 594.781 334.48L592.901 343.66C592.581 343.61 592.251 343.55 591.921 343.5C591.921 343.49 591.921 343.47 591.921 343.46L593.77 334.4Z" fill="black"/>
<path d="M581.26 310.91L594.531 312.47C594.421 313.04 594.361 313.35 594.361 313.38C594.361 313.4 594.35 313.43 594.35 313.45L581.241 311.92C581.251 311.89 581.251 311.85 581.251 311.81C581.25 311.78 581.25 311.47 581.26 310.91Z" fill="black"/>
<path d="M577.29 331.7C582.59 333.05 588.1 333.97 593.769 334.4L591.919 343.46C591.919 343.47 591.919 343.49 591.919 343.5C587.429 342.75 582.549 342.06 577.279 341.45C577.289 341.42 577.289 341.38 577.289 341.34V331.7H577.29Z" fill="#FFC962"/>
<path d="M592.9 343.66C593.23 343.72 593.559 343.77 593.879 343.83V343.84C593.799 344.31 593.389 344.67 592.9 344.67C592.349 344.67 591.9 344.22 591.9 343.67C591.9 343.61 591.91 343.56 591.92 343.5C592.25 343.55 592.58 343.61 592.9 343.66Z" fill="black"/>
<path d="M580.98 269.29C588.5 272.42 596.929 274.29 604.32 274.51C604.25 274.68 604.19 274.87 604.13 275.05C604.11 275.1 604.09 275.15 604.07 275.2C604.04 275.3 604 275.4 603.969 275.5C596.039 275.23 587.839 273.17 581.03 270.39C581.019 270.25 581.019 270.11 581.009 269.97C581.009 269.96 581.009 269.95 581.009 269.94C581 269.72 580.99 269.5 580.98 269.29Z" fill="black"/>
<path d="M581.03 270.39C587.84 273.17 596.04 275.23 603.969 275.5C603.849 275.82 603.74 276.15 603.629 276.49C596.349 276.2 588.449 274.45 581.059 271.49C581.05 271.12 581.04 270.75 581.03 270.39Z" fill="black"/>
<path d="M581.25 311.81C581.25 311.85 581.25 311.89 581.24 311.92L580.25 311.8C580.25 311.8 580.26 311.44 580.26 310.79L581.26 310.91C581.25 311.47 581.25 311.78 581.25 311.81Z" fill="black"/>
<path d="M580.26 310.79C580.321 306.09 580.531 285.98 580.05 271.07C580.39 271.21 580.731 271.35 581.06 271.49C581.52 286.4 581.31 306.44 581.26 310.91L580.26 310.79Z" fill="black"/>
<path d="M581.06 271.49C580.731 271.35 580.39 271.21 580.05 271.07C580.05 271.03 580.04 271 580.04 270.97C580.23 270.96 580.42 270.9 580.58 270.79C580.74 270.68 580.86 270.53 580.93 270.35C580.96 270.37 580.991 270.38 581.031 270.39C581.04 270.75 581.05 271.12 581.06 271.49Z" fill="black"/>
<path d="M580.93 270.35C580.981 270.23 581.01 270.1 581.01 269.97C581.02 270.11 581.02 270.25 581.031 270.39C580.99 270.38 580.96 270.37 580.93 270.35Z" fill="black"/>
<path d="M580.98 269.29C580.99 269.5 581 269.72 581.009 269.94C580.999 269.53 580.709 269.19 580.36 269.04C580.37 269.04 580.389 269.04 580.4 269.05C580.59 269.13 580.79 269.21 580.98 269.29Z" fill="black"/>
<path d="M580.01 269.97C580.31 270.1 580.62 270.23 580.93 270.35C580.861 270.53 580.741 270.68 580.58 270.79C580.419 270.9 580.23 270.96 580.04 270.97C580.03 270.63 580.02 270.3 580.01 269.97Z" fill="black"/>
<path d="M580.26 310.79C580.26 311.44 580.25 311.8 580.25 311.8L579.25 311.68C579.25 311.52 579.26 311.18 579.26 310.68L580.26 310.79Z" fill="black"/>
<path d="M595.34 314.58L580.04 312.78C580.1 312.79 580.17 312.8 580.24 312.8H580.25C580.76 312.8 581.18 312.42 581.24 311.92L594.349 313.45C594.28 313.97 594.629 314.45 595.15 314.55C595.219 314.56 595.28 314.57 595.339 314.57V314.58H595.34Z" fill="black"/>
<path d="M579.26 310.68C579.321 305.74 579.52 285.37 579.031 270.63C579.22 270.72 579.421 270.8 579.621 270.89C579.761 270.95 579.911 271.01 580.051 271.07C580.531 285.98 580.322 306.09 580.261 310.79L579.26 310.68Z" fill="black"/>
<path d="M579.97 268.97C580.1 268.96 580.241 268.99 580.361 269.04C580.711 269.19 581.001 269.53 581.01 269.94C581.01 269.95 581.01 269.96 581.01 269.97C581.01 270.1 580.981 270.23 580.93 270.35C580.62 270.23 580.31 270.1 580.01 269.97C580 269.63 579.99 269.3 579.97 268.97Z" fill="black"/>
<path d="M580.05 271.07C579.91 271.01 579.76 270.95 579.62 270.89C579.74 270.94 579.88 270.97 580.01 270.97C580.02 270.97 580.031 270.97 580.04 270.97C580.04 271 580.05 271.03 580.05 271.07Z" fill="black"/>
<path d="M580.01 269.97C579.7 269.84 579.401 269.7 579.09 269.57C579.191 269.34 579.37 269.16 579.59 269.06C579.651 269.03 579.71 269.01 579.77 269C579.84 268.98 579.901 268.97 579.97 268.97C579.99 269.3 580 269.63 580.01 269.97Z" fill="black"/>
<path d="M579.77 269C579.71 269.01 579.651 269.03 579.59 269.06C579.65 269.04 579.71 269.01 579.77 269Z" fill="black"/>
<path d="M579.62 270.89C579.25 270.73 579.019 270.39 579.01 270.01C579.01 269.93 579.01 269.85 579.031 269.77C579.041 269.7 579.06 269.64 579.091 269.58C579.091 269.57 579.091 269.57 579.091 269.57C579.402 269.7 579.701 269.84 580.011 269.97C580.021 270.3 580.032 270.63 580.041 270.97C580.031 270.97 580.02 270.97 580.011 270.97C579.88 270.97 579.74 270.94 579.62 270.89Z" fill="black"/>
<path d="M579.25 311.68L580.25 311.8L581.24 311.92C581.179 312.42 580.76 312.8 580.25 312.8H580.24C580.17 312.8 580.099 312.79 580.04 312.78C579.58 312.68 579.24 312.27 579.25 311.79C579.25 311.78 579.25 311.74 579.25 311.68Z" fill="black"/>
<path d="M579.01 270.01C579.02 270.39 579.25 270.73 579.62 270.89C579.42 270.8 579.22 270.72 579.03 270.63C579.02 270.42 579.02 270.21 579.01 270.01Z" fill="black"/>
<path d="M579.09 269.58C579.06 269.64 579.04 269.7 579.03 269.77C579.04 269.71 579.06 269.64 579.09 269.58Z" fill="black"/>
<path d="M578.95 268.41C571.849 265.15 566.71 261.15 565.97 258.22C565.5 256.36 565.731 254.82 566.651 253.63C567.671 252.32 569.531 251.53 571.611 251.53C573.84 251.53 576.781 252.52 577.711 255.31C578.09 256.46 578.6 259.68 578.95 268.41Z" fill="#FFC962"/>
<path d="M576.29 311.33L579.25 311.68C579.25 311.74 579.25 311.78 579.25 311.79C579.24 312.27 579.58 312.68 580.04 312.78L577.29 312.46V331.7C576.95 331.62 576.62 331.54 576.29 331.45V311.33Z" fill="black"/>
<path d="M576.29 341.34V331.45C576.62 331.54 576.95 331.62 577.29 331.7V341.34C577.29 341.38 577.29 341.42 577.28 341.45C576.95 341.41 576.62 341.38 576.29 341.34Z" fill="black"/>
<path d="M576.41 310.34L579.26 310.68C579.26 311.18 579.25 311.52 579.25 311.68L576.29 311.33V331.45C575.96 331.36 575.62 331.27 575.29 331.18V311.33C575.29 311.04 575.41 310.77 575.63 310.58C575.84 310.39 576.12 310.31 576.41 310.34Z" fill="black"/>
<path d="M576.29 331.45V341.34C575.96 341.3 575.62 341.27 575.29 341.23V331.18C575.62 331.27 575.96 331.36 576.29 331.45Z" fill="black"/>
<path d="M576.29 341.34C576.62 341.38 576.95 341.41 577.28 341.45C577.23 341.95 576.8 342.34 576.29 342.34C575.74 342.34 575.29 341.9 575.29 341.35V341.23C575.62 341.27 575.96 341.3 576.29 341.34Z" fill="black"/>
<path d="M575.29 331.18V341.23C565.39 340.16 554.17 339.39 541.61 339.18L536.71 309.52C547.03 319.44 560.27 327.02 575.29 331.18Z" fill="#FFC962"/>
<path d="M572.5 106.5L570.3 152L560.02 106.5H572.5Z" fill="#E22953"/>
<path d="M545.33 373.1C555.2 373.37 583.34 374.74 612.21 381.77L612 382.65L609.5 395.5C570.3 388 545.5 387 545.5 387L545.31 373.83L545.33 373.1Z" fill="#C21930"/>
<path d="M577.71 255.31C576.78 252.52 573.84 251.53 571.61 251.53C569.53 251.53 567.67 252.32 566.65 253.63C565.73 254.82 565.5 256.36 565.969 258.22C566.709 261.15 571.849 265.15 578.949 268.41C578.6 259.68 578.09 256.46 577.71 255.31ZM565 258.47C562.67 249.28 576.33 248 578.66 255C579.309 256.96 579.72 262.3 579.97 268.97C579.901 268.97 579.84 268.98 579.77 269C579.71 269.01 579.651 269.04 579.59 269.06C579.37 269.16 579.191 269.34 579.09 269.57C571.43 266.15 565.87 261.89 565 258.47Z" fill="black"/>
<path d="M578.66 255C576.33 248 562.67 249.28 565 258.47C565.87 261.89 571.43 266.15 579.09 269.57C579.09 269.57 579.09 269.57 579.09 269.58C579.06 269.64 579.04 269.71 579.03 269.77C579.009 269.85 579.009 269.93 579.009 270.01C579.019 270.21 579.019 270.42 579.03 270.63C570.7 266.98 564.98 262.43 564.03 258.72C563.24 255.62 564.16 253.57 565.07 252.4C566.469 250.61 568.91 249.53 571.61 249.53C575.429 249.53 578.57 251.56 579.61 254.68C580.24 256.61 580.7 261.39 580.98 269.29C580.79 269.21 580.589 269.13 580.4 269.05C580.389 269.04 580.37 269.04 580.36 269.04C580.24 268.99 580.099 268.96 579.969 268.97C579.72 262.3 579.31 256.96 578.66 255Z" fill="black"/>
<path d="M541.62 446.74C545.07 449.16 550.94 453.35 555.13 456.76C557.651 458.81 559.57 460.57 560 461.5C560.33 462.22 557.26 465.08 552.18 469.12C544.651 461.4 528.16 451.39 528.16 451.39C534.4 447.5 538.75 444.75 538.75 444.75C538.75 444.75 539.88 445.52 541.62 446.74Z" fill="#F51F3C" fill-opacity="0.17"/>
<path d="M621 369L615.75 382.65C614.57 382.34 613.39 382.05 612.21 381.77C583.34 374.74 555.2 373.37 545.33 373.1C542.94 373.04 541.62 373.04 541.62 373.04L539.5 358.25L539.48 357C550.549 356.78 584.709 357.09 621.44 367.34L621 369Z" fill="#F51F3C"/>
<path d="M507.61 149.14L516.5 190L490.9 153.64L507.61 149.14Z" fill="#E22953"/>
<path d="M502.5 319.5L466 347.75L459 334.72L502.5 319.5Z" fill="#E22953"/>
<path d="M484 258.47L426.81 250.53L431 232.5L484 258.47Z" fill="#E22953"/>
<path d="M485 513.5C476.5 515.25 450.25 497.5 450.25 497.5L449.48 497.26C450.16 495 450.64 493.04 450.75 491.75C451 488.82 447.94 480.36 444.88 472.77C454.65 487.36 470.58 507.44 487.1 512.74C486.21 513.14 485.5 513.4 485 513.5Z" fill="#C21930"/>
<path d="M429.31 864.29C442.14 867.9 453.67 865.48 457.97 864.3L458.5 869.25C458.5 869.25 487.75 875.25 493.5 877.27C499.25 879.291 498.25 890.25 498.25 890.25L427.5 886L429.31 864.29Z" fill="#750F1D"/>
<path d="M421.54 605.03V605.019C425.91 604.37 430.26 603.54 434.5 602.499C471.25 593.499 472.75 589.999 472.75 589.999C472.75 589.999 473.67 695.829 464.67 752.329C464.67 752.329 463.25 854.249 459.75 863.749C459.75 863.749 459.12 863.979 457.97 864.299C453.67 865.48 442.14 867.9 429.31 864.289C428.71 864.129 428.11 863.949 427.5 863.749C427.5 863.749 427.83 768.999 429.33 755.999C430.83 742.999 412.91 641.249 412.91 641.249L412.29 641.089C417.67 620.16 421.54 605.03 421.54 605.03Z" fill="#C21930"/>
<path d="M418.5 404.25C418.5 404.25 445.94 409.24 430.3 431.68C424.98 431.96 417.17 432.64 411.26 433.19C406.51 433.64 403 434 403 434L400.27 423.25L398.75 417.25C398.75 417.25 417.75 408.75 418.5 404.25Z" fill="#750F1D"/>
<path d="M416.92 452.67V458L399.95 447.26L416.92 452.67Z" fill="#C21930"/>
<path d="M411.26 433.19L416.92 452.67L399.95 447.26L396 446L403 434C403 434 406.51 433.64 411.26 433.19Z" fill="#F51F3C" fill-opacity="0.17"/>
<path d="M392.98 382.63C393.9 382.43 394.34 380.84 393.95 379.09C393.57 377.33 392.51 376.07 391.59 376.27C390.67 376.47 390.23 378.06 390.61 379.81C391 381.57 392.06 382.83 392.98 382.63ZM403.2 376.61C403.59 378.37 404.65 379.63 405.57 379.43C406.49 379.23 406.93 377.64 406.54 375.88C406.16 374.13 405.1 372.86 404.18 373.07C403.26 373.27 402.82 374.85 403.2 376.61ZM401.18 382.67C401.3 383.17 403.55 392.34 405.5 395.5L409.83 390C406.12 388.38 401.47 383 401.18 382.67ZM362.5 394.75C363 386.25 371 387.25 371 387.25L371.35 380.75C371.35 380.75 379.01 375.81 384.3 368.12C384.66 368.02 384.99 367.93 385.3 367.86C386.38 367.71 388.79 367.52 390.31 367.85C390.85 367.96 391.38 367.62 391.5 367.08C391.61 366.54 391.27 366.01 390.73 365.89C389.09 365.54 386.94 365.67 385.79 365.79C388.78 360.61 390.44 354.41 388.25 347.75C388.25 347.75 401.85 347.99 406.79 361.89C403.84 362.44 401.64 363.56 401.54 363.61C401.05 363.87 400.86 364.47 401.11 364.96C401.29 365.3 401.64 365.5 402 365.5C402.16 365.5 402.31 365.46 402.46 365.39C402.48 365.38 404.56 364.31 407.28 363.82C407.33 363.81 407.37 363.8 407.42 363.8C408.48 367.02 409.65 370.59 410.82 374.23C414.92 387.04 419.07 400.85 418.5 404.25C417.75 408.75 398.75 417.25 398.75 417.25C398.75 417.25 393.25 419.1 386 416.12C386 416.12 390.44 422.19 400.27 423.25L403 434L396 446L377.25 440.25C385.25 421 374.5 401.5 374.5 401.5C374.5 401.5 362 403.25 362.5 394.75ZM404.87 407.83C408.33 405.5 408.67 400 408.67 400C408.67 400 400.5 402.67 393.17 402C393.17 402 401.41 410.17 404.87 407.83Z" fill="#FDA181"/>
<path d="M409.83 390L405.5 395.5C403.55 392.34 401.3 383.17 401.18 382.67C401.47 383 406.12 388.38 409.83 390Z" fill="white"/>
<path d="M408.67 400C408.67 400 408.33 405.5 404.87 407.83C401.41 410.17 393.17 402 393.17 402C400.5 402.67 408.67 400 408.67 400Z" fill="white"/>
<path d="M411.21 363.66C410.05 363.52 408.78 363.58 407.42 363.8C407.32 363.48 407.21 363.16 407.11 362.84C407.07 362.73 407.04 362.61 407 362.5C406.93 362.29 406.86 362.09 406.79 361.89C406.84 361.88 406.88 361.87 406.93 361.86C408.54 361.57 410.05 361.51 411.45 361.68C411.99 361.74 412.39 362.24 412.32 362.79C412.26 363.33 411.76 363.73 411.21 363.66Z" fill="black"/>
<path d="M405.57 379.43C404.65 379.63 403.59 378.37 403.2 376.61C402.82 374.85 403.26 373.27 404.18 373.07C405.1 372.86 406.16 374.13 406.54 375.88C406.93 377.64 406.49 379.23 405.57 379.43Z" fill="#231F20"/>
<path d="M407.28 363.82C404.56 364.31 402.48 365.38 402.46 365.39C402.31 365.46 402.16 365.5 402 365.5C401.64 365.5 401.29 365.3 401.11 364.96C400.86 364.47 401.05 363.87 401.54 363.61C401.64 363.56 403.84 362.44 406.79 361.89C406.86 362.09 406.93 362.29 407 362.5C407.04 362.61 407.07 362.73 407.11 362.84C407.21 363.16 407.32 363.48 407.42 363.8C407.37 363.8 407.33 363.81 407.28 363.82Z" fill="black"/>
<path d="M398.75 417.25L400.27 423.25C390.44 422.19 386 416.12 386 416.12C393.25 419.1 398.75 417.25 398.75 417.25Z" fill="white"/>
<path d="M396 446L386.33 461.33L376.57 446.01L376.56 446L373.3 440.89V440.88C375.75 440.49 377.25 440.25 377.25 440.25L396 446Z" fill="#F51F3C" fill-opacity="0.17"/>
<path d="M391.59 376.27C392.51 376.07 393.57 377.33 393.95 379.09C394.34 380.84 393.9 382.43 392.98 382.63C392.06 382.83 391 381.57 390.61 379.81C390.23 378.06 390.67 376.47 391.59 376.27Z" fill="#231F20"/>
<path d="M387 470L376.57 446.01L386.33 461.33L396 446L399.95 447.26L387 470Z" fill="#C21930"/>
<path d="M390.31 367.85C388.79 367.52 386.38 367.71 385.3 367.86C384.99 367.93 384.66 368.02 384.3 368.12C384.59 367.71 384.86 367.29 385.13 366.87C385.13 366.87 385.13 366.87 385.14 366.87C385.36 366.52 385.58 366.16 385.79 365.79C386.94 365.67 389.09 365.54 390.73 365.89C391.27 366.01 391.61 366.54 391.5 367.08C391.38 367.62 390.85 367.96 390.31 367.85Z" fill="black"/>
<path d="M384.3 368.12C382.02 368.75 378.94 369.85 377.97 370.86C377.78 371.07 377.51 371.17 377.25 371.17C377 371.17 376.75 371.08 376.56 370.89C376.16 370.51 376.15 369.88 376.53 369.48C378.42 367.48 384.24 366.05 384.9 365.9C384.95 365.89 385 365.88 385.05 365.87C385.17 365.86 385.43 365.82 385.79 365.79C385.58 366.16 385.36 366.52 385.14 366.87C385.13 366.87 385.13 366.87 385.13 366.87C384.86 367.29 384.59 367.71 384.3 368.12Z" fill="black"/>
<path d="M354.31 588.5C354.36 586.5 350.58 577.4 350.58 577.4L352.89 576.309C352.89 576.309 366.75 546.749 365.25 538.749C364.57 535.099 353.1 507.059 347 492.289C344.76 486.879 343.25 483.249 343.25 483.249L342.45 483.089L336.56 511.919L327.5 529L347.41 566.11C335.88 568.969 328.35 574.24 324.82 577.19C315.5 562.099 298.43 534.25 298.25 532.25C298 529.5 332.25 450 333.5 448.5C333.79 448.15 336.33 447.51 340.05 446.75C349.28 444.84 365.77 442.11 373.3 440.88V440.89L376.56 446L376.57 446.01L387 470L399.95 447.26L416.92 458V452.67L411.26 433.19C417.17 432.64 424.98 431.96 430.3 431.68C433.51 431.52 435.81 431.5 436.25 431.75C438 432.75 481.25 477.75 484.25 477.5C486.38 477.32 512.92 460.91 528.16 451.39C528.16 451.39 544.65 461.4 552.18 469.12C535.67 482.26 497.94 507.86 487.1 512.74C470.58 507.44 454.65 487.36 444.88 472.77C447.94 480.36 451 488.82 450.75 491.75C450.64 493.04 450.16 495 449.48 497.26C447.15 505.01 442.5 516.25 442.5 516.25C442.5 516.25 466.5 560 472.75 590C472.75 590 471.25 593.5 434.5 602.5C430.26 603.54 425.91 604.37 421.54 605.02C388.03 610.09 353.07 605.031 353.07 605.031C353.79 597.49 354.28 589.52 354.31 588.5Z" fill="#F51F3C"/>
<path d="M362.5 394.75C362 403.25 374.5 401.5 374.5 401.5C374.5 401.5 385.25 421 377.25 440.25C377.25 440.25 375.75 440.49 373.3 440.88C365.77 442.11 349.28 444.84 340.05 446.75V446.74C340.02 446.74 331 446.73 329.75 432.5C328.5 418.25 346.5 411 348.25 402.25C350 393.5 338.5 386.25 340.5 372.25C342.5 358.25 353.75 340.5 386 335.25C418.25 330 422.88 358.46 410.82 374.23C409.65 370.59 408.48 367.02 407.42 363.8C408.78 363.58 410.05 363.52 411.21 363.66C411.76 363.73 412.26 363.33 412.32 362.79C412.39 362.24 411.99 361.74 411.45 361.68C410.05 361.51 408.54 361.57 406.93 361.86C406.88 361.87 406.84 361.88 406.79 361.89C401.85 347.99 388.25 347.75 388.25 347.75C390.44 354.41 388.78 360.61 385.79 365.79C385.43 365.82 385.17 365.86 385.05 365.87C385 365.88 384.95 365.89 384.9 365.9C384.24 366.05 378.42 367.48 376.53 369.48C376.15 369.88 376.16 370.51 376.56 370.89C376.75 371.08 377 371.17 377.25 371.17C377.51 371.17 377.78 371.07 377.97 370.86C378.94 369.85 382.02 368.75 384.3 368.12C379.01 375.81 371.35 380.75 371.35 380.75L371 387.25C371 387.25 363 386.25 362.5 394.75Z" fill="#750F1D"/>
<path d="M347.41 566.11L352.89 576.309L350.58 577.4L333.69 585.37L330.75 586.75C330.75 586.75 328.34 582.88 324.82 577.19C328.35 574.24 335.88 568.97 347.41 566.11Z" fill="#F51F3C" fill-opacity="0.17"/>
<path d="M350.58 577.4C350.58 577.4 354.36 586.5 354.31 588.5C354.28 589.52 353.79 597.49 353.07 605.03C352.38 612.28 351.48 619.12 350.58 619C349.89 618.91 348.16 617.86 346.1 616.13C342.68 613.24 338.37 608.46 336.5 603C333.5 594.25 333.69 585.37 333.69 585.37L350.58 577.4Z" fill="#FDA181"/>
<path d="M342 766.5C342.75 752.25 345.71 618.01 346.1 616.13C348.16 617.86 349.89 618.91 350.58 619C351.48 619.12 352.38 612.28 353.07 605.03C353.07 605.03 388.03 610.09 421.54 605.019V605.03C421.54 605.03 417.67 620.16 412.29 641.09C400.73 685.98 382.22 757.53 380 763.5C380 763.5 378.25 804.18 356.5 856.43C356.5 856.43 355.7 856.691 354.25 857C349.81 857.96 339.26 859.44 326.78 855.67C325.38 855.24 323.95 854.75 322.5 854.18C322.5 854.18 341.25 780.75 342 766.5Z" fill="#C21930"/>
<path d="M326.78 855.67C339.26 859.441 349.81 857.96 354.25 857L351.5 884.75L283.75 886C283.75 886 283.75 877.75 285.75 873.75C287.75 869.75 322.5 863.5 322.5 863.5L326.78 855.67Z" fill="#750F1D"/>
<path d="M343.25 483.25C343.25 483.25 344.76 486.88 347 492.29L346.98 492.3L336.56 511.92L342.45 483.09L343.25 483.25Z" fill="#C21930"/>
<path d="M663 244.333C662.018 234.986 653.816 220.197 646.336 214.997C644.216 213.523 637.143 210.099 634.469 212.468C630.088 216.349 636.577 223.046 639 225.666C643.043 230.039 647.498 234.497 650.185 239.632C652.182 243.447 652.905 248.497 655.501 251.832C662.781 261.182 666.51 249.357 662.333 242.333" fill="white"/>
<path d="M660.333 270.333C659.404 272.629 656.635 281.573 657.654 284.333C659.212 288.55 663.98 289.677 666.899 285.666C671.509 279.328 661.704 265.477 659 273.666" fill="white"/>
</svg>
