<svg width="320" height="158" viewBox="0 0 320 158" fill="none" xmlns="http://www.w3.org/2000/svg">
<path d="M303.503 110.036C298.954 109.692 294.63 113.651 293.607 117.164C292.485 121.032 294.492 125.414 298.387 127.602C300.36 128.707 302.711 129.271 305.067 129.372C307.417 129.474 309.853 129.113 311.854 128.058C316.145 125.792 317.478 120.519 315.313 116.634C313.233 112.89 308.269 110.397 303.503 110.036Z" fill="#750F1D" stroke="#750F1D" stroke-width="0.660145" stroke-miterlimit="10"/>
<path d="M310.751 9.57817C306.962 7.27747 301.905 7.49173 297.271 7.79623C291.983 8.14585 286.352 8.60262 282.18 11.4052C276.503 15.2228 275.334 22.0967 275.149 28.2657C274.879 37.2148 275.783 46.1863 277.797 54.9719C279.546 62.607 282.134 70.1012 285.507 77.3247C288.498 83.725 292.227 93.0631 297.971 98.0479C301.899 101.46 302.935 98.3975 305.859 94.6025C308.309 91.4278 310.355 88.0331 312.052 84.5144C315.286 77.821 317.22 70.6933 318.178 63.5093C319.98 49.9645 318.481 36.273 316.917 22.7057C316.369 17.8618 315.405 12.4033 310.751 9.57817Z" fill="#750F1D" stroke="#750F1D" stroke-width="0.660145" stroke-miterlimit="10"/>
<path d="M49.8526 116.427C50.1199 113.487 50.3872 110.413 50.6545 107.205C51.0109 103.997 51.2782 100.923 51.4564 97.9829C51.7238 95.0425 51.9465 92.414 52.1247 90.0974C52.3029 87.7807 52.392 86.0878 52.392 85.0185C52.392 82.7019 51.8129 80.6525 50.6545 78.8705C49.5853 76.9993 47.4469 76.0638 44.2392 76.0638C39.9623 76.0638 36.4873 78.0686 33.8142 82.0782C31.2303 86.0878 29.7155 91.4339 29.27 98.1165C29.0918 99.9877 28.8691 102.616 28.6018 106.002C28.3345 109.299 28.0672 112.685 27.7998 116.16C27.5325 119.546 27.2652 122.62 26.9979 125.382C26.8197 128.055 26.7306 129.703 26.7306 130.327C26.7306 131.396 26.5079 132.109 26.0624 132.465C25.7059 132.822 24.9486 133 23.7903 133H18.9787C16.2166 133 13.9445 132.733 12.1624 132.198C10.4695 131.574 9.08841 130.728 8.01919 129.659C7.03906 128.589 6.32625 127.297 5.88074 125.783C5.52433 124.179 5.34612 122.352 5.34612 120.303C5.34612 118.343 5.47978 115.625 5.74708 112.15C6.10349 108.586 6.549 103.73 7.08362 97.5819C7.61823 91.3448 8.24194 83.4147 8.95476 73.7917C9.66758 64.1686 10.4249 52.229 11.2269 37.9726C11.316 36.0124 11.5387 34.8541 11.8951 34.4977C12.1624 34.2304 12.8753 34.0967 14.0336 34.0967H19.246C21.9191 34.0967 24.1467 34.4086 25.9287 35.0323C27.7107 35.656 29.1364 36.5025 30.2056 37.5717C31.2748 38.6409 32.0322 39.8883 32.4777 41.314C32.9232 42.6505 33.146 44.0761 33.146 45.5909C33.146 47.1947 32.9678 50.1796 32.6114 54.5456C32.3441 58.9116 31.9876 64.035 31.5421 69.9157C34.2152 65.4606 37.1556 62.3866 40.3632 60.6937C43.66 59.0007 47.8033 58.1543 52.793 58.1543C56.5353 58.1543 59.7875 58.5552 62.5497 59.3571C65.3118 60.1591 67.5839 61.5401 69.366 63.5004C71.2371 65.3715 72.6182 67.8664 73.5092 70.985C74.4002 74.0144 74.8457 77.8013 74.8457 82.3455C74.8457 83.7711 74.7121 86.2214 74.4448 89.6964C74.1775 93.1714 73.8211 97.1364 73.3756 101.592C73.0191 106.047 72.6182 110.724 72.1727 115.625C71.8163 120.437 71.5044 124.847 71.2371 128.857C71.148 129.837 71.0589 130.594 70.9698 131.129C70.8807 131.663 70.7025 132.064 70.4352 132.332C70.257 132.599 69.9451 132.777 69.4996 132.866C69.0541 132.955 68.4304 133 67.6285 133H63.3516C60.5003 133 58.1837 132.733 56.4016 132.198C54.6196 131.663 53.2385 130.906 52.2584 129.926C51.2782 128.946 50.5654 127.743 50.1199 126.317C49.7635 124.803 49.5853 123.11 49.5853 121.239C49.5853 120.348 49.5853 119.501 49.5853 118.699C49.6744 117.897 49.7635 117.14 49.8526 116.427ZM117.668 134.337C113.747 134.337 109.827 133.846 105.907 132.866C102.075 131.886 98.6001 130.193 95.4816 127.788C92.4521 125.382 89.9572 122.174 87.997 118.165C86.0367 114.155 85.0566 109.121 85.0566 103.062C85.0566 100.834 85.2348 98.1611 85.5912 95.0425C85.9476 91.9239 86.6159 88.7163 87.596 85.4195C88.6653 82.1227 90.0909 78.8705 91.8729 75.6628C93.7441 72.366 96.1498 69.4257 99.0902 66.8417C102.031 64.2577 105.595 62.1638 109.782 60.56C113.97 58.9562 118.96 58.1543 124.752 58.1543C129.385 58.1543 133.305 58.6889 136.513 59.7581C139.721 60.8273 142.305 62.2975 144.265 64.1686C146.225 65.9507 147.651 68.0446 148.542 70.4503C149.433 72.8561 149.878 75.4401 149.878 78.2022C149.878 82.3009 149.032 85.7759 147.339 88.6272C145.735 91.4784 143.597 93.8842 140.924 95.8444C138.34 97.7156 135.444 99.1858 132.236 100.255C129.029 101.324 125.865 102.171 122.747 102.794C119.628 103.329 116.732 103.685 114.059 103.864C111.475 103.953 109.471 103.997 108.045 103.997C108.045 105.69 108.268 107.383 108.713 109.076C109.248 110.68 110.005 112.106 110.985 113.353C111.965 114.6 113.257 115.625 114.861 116.427C116.465 117.229 118.425 117.63 120.742 117.63C123.059 117.63 124.841 117.273 126.088 116.561C127.425 115.759 128.494 114.912 129.296 114.021C130.098 113.041 130.766 112.195 131.301 111.482C131.924 110.68 132.726 110.279 133.706 110.279C134.152 110.279 134.909 110.413 135.978 110.68C137.137 110.858 138.295 111.304 139.453 112.016C140.612 112.729 141.636 113.709 142.527 114.957C143.418 116.204 143.864 117.808 143.864 119.768C143.864 122.352 143.062 124.58 141.458 126.451C139.854 128.322 137.761 129.837 135.177 130.995C132.682 132.154 129.875 133 126.756 133.535C123.638 134.069 120.608 134.337 117.668 134.337ZM120.207 75.9301C118.247 75.9301 116.554 76.5093 115.129 77.6676C113.792 78.7368 112.634 80.1179 111.654 81.8109C110.763 83.5038 110.05 85.3749 109.515 87.4243C109.07 89.4736 108.713 91.4339 108.446 93.305C113.97 93.2159 118.425 92.2804 121.811 90.4983C125.286 88.7163 127.024 86.1769 127.024 82.8801C127.024 81.098 126.445 79.4942 125.286 78.0686C124.217 76.6429 122.524 75.9301 120.207 75.9301ZM173.432 134.203C167.907 134.203 163.942 132.733 161.536 129.792C159.131 126.852 157.928 121.996 157.928 115.224C157.928 114.155 157.972 112.818 158.062 111.215C158.24 109.611 158.418 107.561 158.596 105.066C158.863 102.483 159.175 99.3194 159.532 95.5771C159.888 91.8348 160.245 87.2906 160.601 81.9445C161.046 76.5984 161.492 70.3167 161.937 63.0994C162.472 55.8822 163.007 47.5066 163.541 37.9726C163.63 36.0124 163.853 34.8541 164.21 34.4977C164.477 34.2304 165.19 34.0967 166.348 34.0967H171.56C174.234 34.0967 176.461 34.4086 178.243 35.0323C180.025 35.656 181.451 36.5025 182.52 37.5717C183.589 38.6409 184.347 39.8883 184.792 41.314C185.238 42.6505 185.46 44.0761 185.46 45.5909C185.46 47.3729 185.327 49.9569 185.059 53.3427C184.881 56.6395 184.614 60.3818 184.258 64.5696C183.901 68.7574 183.545 73.1234 183.188 77.6676C182.832 82.2118 182.475 86.5778 182.119 90.7656C181.763 94.8643 181.451 98.562 181.183 101.859C181.005 105.156 180.916 107.65 180.916 109.343C180.916 111.66 181.317 113.308 182.119 114.289C183.01 115.269 183.946 115.982 184.926 116.427C185.906 116.783 186.797 117.051 187.599 117.229C188.49 117.318 188.935 117.585 188.935 118.031C188.935 119.991 188.713 121.951 188.267 123.912C187.822 125.783 187.02 127.52 185.861 129.124C184.703 130.639 183.099 131.886 181.05 132.866C179.09 133.757 176.55 134.203 173.432 134.203ZM244.503 58.1543C252.878 58.1543 259.16 60.7382 263.348 65.9061C267.625 71.0741 269.763 79.2269 269.763 90.3647C269.763 97.3146 268.961 103.507 267.357 108.942C265.754 114.378 263.526 119.011 260.675 122.842C257.823 126.585 254.482 129.436 250.651 131.396C246.819 133.356 242.676 134.337 238.221 134.337C233.499 134.337 229.801 133.312 227.128 131.263C224.455 129.213 222.361 126.317 220.846 122.575C220.579 125.783 220.356 128.233 220.178 129.926C220 131.619 219.866 132.955 219.777 133.936C219.688 135.005 219.599 135.94 219.51 136.742C219.51 137.544 219.42 138.613 219.242 139.95C219.153 141.286 219.02 143.113 218.841 145.43C218.663 147.746 218.396 150.954 218.039 155.053C217.95 156.122 217.728 156.835 217.371 157.191C217.015 157.548 216.257 157.726 215.099 157.726H210.288C207.525 157.726 205.253 157.414 203.471 156.79C201.778 156.256 200.397 155.454 199.328 154.384C198.348 153.315 197.635 151.979 197.189 150.375C196.833 148.86 196.655 147.078 196.655 145.029C196.655 144.138 196.789 141.732 197.056 137.812C197.323 133.891 197.635 129.213 197.991 123.778C198.437 118.254 198.882 112.328 199.328 106.002C199.863 99.6758 200.353 93.6614 200.798 87.9589C201.244 82.1673 201.6 77.0439 201.867 72.5888C202.224 68.1337 202.491 65.0597 202.669 63.3667C202.758 61.4065 202.981 60.2482 203.338 59.8917C203.605 59.6244 204.318 59.4908 205.476 59.4908H210.688C215.5 59.4908 218.975 60.5155 221.113 62.5648C223.341 64.5251 224.455 66.8863 224.455 69.6484C226.504 65.5497 229.133 62.6094 232.34 60.8273C235.637 59.0453 239.691 58.1543 244.503 58.1543ZM234.746 75.9301C230.202 75.9301 226.86 77.8904 224.722 81.8109C222.584 85.7313 221.514 91.0775 221.514 97.8492C221.514 100.166 221.648 102.438 221.915 104.666C222.272 106.893 222.851 108.898 223.653 110.68C224.455 112.462 225.524 113.888 226.86 114.957C228.286 116.026 230.068 116.561 232.207 116.561C236.038 116.561 239.246 114.69 241.83 110.947C244.414 107.205 245.706 101.324 245.706 93.305C245.706 91.0775 245.527 88.939 245.171 86.8897C244.904 84.7512 244.369 82.8801 243.567 81.2762C242.765 79.6724 241.651 78.3804 240.226 77.4003C238.8 76.4202 236.974 75.9301 234.746 75.9301Z" fill="#750F1D"/>
</svg>
