<svg width="35" height="35" viewBox="0 0 35 35" fill="none" xmlns="http://www.w3.org/2000/svg">
<mask id="mask0_208_181" style="mask-type:alpha" maskUnits="userSpaceOnUse" x="0" y="0" width="35" height="35">
<g clip-path="url(#clip0_208_181)">
<path d="M34.5727 32.5106L25.8679 23.8058C28.2401 20.9046 29.4064 17.2026 29.1256 13.4656C28.8448 9.72857 27.1384 6.24243 24.3594 3.72825C21.5804 1.21406 17.9413 -0.135795 14.1949 -0.0421235C10.4485 0.0515479 6.88144 1.58158 4.23152 4.23151C1.5816 6.88143 0.0515631 10.4485 -0.0421083 14.1949C-0.13578 17.9413 1.21408 21.5803 3.72826 24.3594C6.24244 27.1384 9.72859 28.8448 13.4656 29.1256C17.2026 29.4064 20.9046 28.2401 23.8058 25.8679L32.5106 34.5727C32.7857 34.8383 33.1541 34.9853 33.5364 34.982C33.9188 34.9787 34.2846 34.8253 34.5549 34.5549C34.8253 34.2845 34.9787 33.9188 34.982 33.5364C34.9854 33.154 34.8384 32.7857 34.5727 32.5106ZM14.5833 26.25C12.2759 26.25 10.0203 25.5658 8.10168 24.2838C6.18311 23.0019 4.68776 21.1798 3.80474 19.048C2.92172 16.9162 2.69068 14.5704 3.14084 12.3073C3.591 10.0442 4.70214 7.96535 6.33376 6.33374C7.96537 4.70213 10.0442 3.59099 12.3073 3.14083C14.5704 2.69066 16.9162 2.9217 19.048 3.80473C21.1798 4.68775 23.0019 6.18309 24.2838 8.10167C25.5658 10.0202 26.25 12.2759 26.25 14.5833C26.2465 17.6764 25.0163 20.6419 22.8291 22.8291C20.6419 25.0162 17.6765 26.2465 14.5833 26.25Z" fill="black"/>
</g>
</mask>
<g mask="url(#mask0_208_181)">
<rect x="-33" y="-33" width="100" height="100" fill="#750F1D"/>
</g>
<defs>
<clipPath id="clip0_208_181">
<rect width="35" height="35" fill="white"/>
</clipPath>
</defs>
</svg>
