<svg width="1440" height="458" viewBox="0 0 1440 458" fill="none" xmlns="http://www.w3.org/2000/svg">
<g clip-path="url(#clip0_207_154)">
<path d="M-394 91.6L-308.125 122.086C-222.25 153.144 -50.5 213.256 121.25 251.9C293 290.544 464.75 304.856 636.5 259.486C808.25 213.256 980 107.344 1151.75 99.1856C1323.5 91.6 1495.25 183.2 1581.12 229L1667 274.8V458H1581.12C1495.25 458 1323.5 458 1151.75 458C980 458 808.25 458 636.5 458C464.75 458 293 458 121.25 458C-50.5 458 -222.25 458 -308.125 458H-394V91.6Z" fill="#F51F3C"/>
</g>
<defs>
<clipPath id="clip0_207_154">
<rect width="1835" height="458" fill="white" transform="translate(-394)"/>
</clipPath>
</defs>
</svg>
