<svg width="1440" height="456" viewBox="0 0 1440 456" fill="none" xmlns="http://www.w3.org/2000/svg">
<g clip-path="url(#clip0_219_178)">
<path d="M-288 364.4L-202.125 333.914C-116.25 302.856 55.5 242.744 227.25 204.1C399 165.456 570.75 151.144 742.5 196.514C914.25 242.744 1086 348.656 1257.75 356.814C1429.5 364.4 1601.25 272.8 1687.12 227L1773 181.2V-1.99997H1687.12C1601.25 -1.99997 1429.5 -1.99997 1257.75 -1.99997C1086 -1.99997 914.25 -1.99997 742.5 -1.99997C570.75 -1.99997 399 -1.99997 227.25 -1.99997C55.5 -1.99997 -116.25 -1.99997 -202.125 -1.99997H-288V364.4Z" fill="#F51F3C"/>
<path d="M1318.29 113.787C1315.36 114.172 1312.2 114.082 1309.89 116.278C1307.3 118.735 1307.08 122.935 1307.08 126.264C1307.08 134.355 1308.5 142.379 1311.28 149.989C1312.63 153.68 1313.98 157.599 1316.11 160.918C1316.64 161.737 1317.25 162.592 1318.01 163.209C1318.35 163.487 1318.76 163.739 1319.23 163.698C1320.3 163.602 1320.9 162.075 1321.41 161.291C1323.15 158.601 1324.48 155.749 1325.46 152.698C1327.67 145.812 1327.94 138.471 1327.45 131.308C1327.27 128.633 1327.18 125.938 1326.83 123.275C1326.44 120.323 1326.48 116.393 1323.52 114.67C1322.69 114.185 1321.75 113.969 1320.81 113.805C1320.03 113.667 1319.08 113.683 1318.29 113.787Z" fill="#F8F8F8" fill-opacity="0.48"/>
<path d="M1275.32 125.797C1275.69 125.952 1276.14 125.89 1276.54 125.89H1278.69C1278.32 125.735 1277.87 125.797 1277.47 125.797H1275.32Z" fill="#EEEEEE"/>
<path d="M1283.92 142.236C1283.66 141.37 1283.97 140.325 1284.01 139.434C1284.08 137.765 1284.15 136.052 1284.31 134.39C1284.45 132.936 1284.72 131.264 1284.42 129.813C1284.31 129.335 1284.15 128.839 1283.91 128.412C1282.61 126.088 1279.94 125.89 1277.57 125.89C1276.88 125.89 1276.2 125.885 1275.51 125.89C1275.15 125.893 1274.8 125.909 1274.61 126.269C1274.36 126.732 1274.39 127.435 1274.39 127.945C1274.39 128.663 1274.32 129.376 1274.29 130.093C1274.18 132.706 1274 135.33 1273.82 137.94C1273.43 143.696 1273.05 149.474 1272.51 155.22C1272.2 158.48 1271.76 161.754 1271.68 165.027C1271.62 167.557 1272.08 170.126 1274.76 171.09C1275.41 171.321 1276.14 171.418 1276.82 171.464C1277.84 171.534 1278.88 171.473 1279.9 171.473C1280.36 171.472 1280.92 171.516 1281.27 171.164C1281.7 170.737 1281.58 169.965 1281.58 169.418C1281.58 168.202 1281.79 166.987 1281.87 165.775C1282.05 163.218 1282.33 160.673 1282.51 158.115C1282.66 155.975 1282.74 153.755 1283.28 151.67C1284.08 148.593 1286.06 145.237 1289.62 145.225C1290.15 145.224 1290.69 145.288 1291.2 145.456C1293.77 146.296 1293.46 149.681 1293.27 151.764C1292.95 155.184 1292.73 158.617 1292.4 162.038C1292.2 164.179 1291.68 166.79 1292.52 168.857C1293.58 171.47 1296.78 171.473 1299.14 171.473C1299.88 171.473 1301.28 171.745 1301.78 171.079C1302.25 170.47 1302.1 169.387 1302.14 168.67C1302.21 166.967 1302.36 165.23 1302.52 163.533C1302.81 160.579 1302.99 157.613 1303.27 154.659C1303.48 152.42 1303.72 150.186 1303.72 147.934C1303.72 145.141 1303.5 142.188 1301.7 139.901C1300.2 138.005 1298.16 137.404 1295.87 137.087C1292.08 136.56 1287.92 137.137 1285.31 140.181C1284.78 140.791 1284.2 141.478 1283.92 142.236ZM1319.23 169.187C1318.43 169.366 1317.73 169.883 1317.17 170.445C1315.35 172.269 1314.96 175.041 1316.34 177.264C1317.73 179.507 1320.51 180.222 1322.96 179.652C1325.71 179.012 1327.09 175.824 1326.17 173.247C1325.25 170.673 1322.01 168.558 1319.23 169.187Z" fill="#F8F8F8" fill-opacity="0.48"/>
</g>
<defs>
<clipPath id="clip0_219_178">
<rect width="1835" height="456" fill="white" transform="matrix(1 0 0 -1 -288 456)"/>
</clipPath>
</defs>
</svg>
